<svg width="76" height="19" viewBox="0 0 76 19" fill="none" xmlns="http://www.w3.org/2000/svg">
<path d="M0.238345 8.92385L4.84433 4.31787C5.16269 3.99951 5.67747 3.99951 5.99244 4.31787L6.75785 5.08327C7.0762 5.40163 7.0762 5.91642 6.75785 6.23138L3.4964 9.4996L6.76123 12.7644C7.07959 13.0828 7.07959 13.5976 6.76123 13.9125L5.99583 14.6813C5.67747 14.9997 5.16269 14.9997 4.84772 14.6813L0.241731 10.0754C-0.0800104 9.757 -0.0800104 9.24221 0.238345 8.92385Z" fill="#666666"/>
<path d="M27.2955 3.36364V15H25.8864V4.84091H25.8182L22.9773 6.72727V5.29545L25.8864 3.36364H27.2955ZM39.2784 2.81818L35.5284 16.75H34.3011L38.0511 2.81818H39.2784ZM48.9815 15.1591C48.3149 15.1591 47.7145 15.0265 47.1804 14.7614C46.6463 14.4962 46.2183 14.1326 45.8963 13.6705C45.5743 13.2083 45.3982 12.6818 45.3679 12.0909H46.7315C46.7846 12.6174 47.0232 13.053 47.4474 13.3977C47.8755 13.7386 48.3868 13.9091 48.9815 13.9091C49.4588 13.9091 49.883 13.7973 50.2543 13.5739C50.6293 13.3504 50.9228 13.0436 51.1349 12.6534C51.3509 12.2595 51.4588 11.8144 51.4588 11.3182C51.4588 10.8106 51.3471 10.358 51.1236 9.96023C50.9039 9.55871 50.6009 9.24242 50.2145 9.01136C49.8281 8.7803 49.3868 8.66288 48.8906 8.65909C48.5346 8.6553 48.169 8.71023 47.794 8.82386C47.419 8.93371 47.1103 9.07576 46.8679 9.25L45.5497 9.09091L46.2543 3.36364H52.2997V4.61364H47.4361L47.027 8.04545H47.0952C47.3338 7.85606 47.633 7.69886 47.9929 7.57386C48.3527 7.44886 48.7277 7.38636 49.1179 7.38636C49.83 7.38636 50.4645 7.55682 51.0213 7.89773C51.5819 8.23485 52.0213 8.69697 52.3395 9.28409C52.6615 9.87121 52.8224 10.5417 52.8224 11.2955C52.8224 12.0379 52.6558 12.7008 52.3224 13.2841C51.9929 13.8636 51.5384 14.322 50.9588 14.6591C50.3793 14.9924 49.7202 15.1591 48.9815 15.1591Z" fill="black"/>
<path d="M75.7615 10.0763L71.1533 14.6845C70.8348 15.003 70.3198 15.003 70.0047 14.6845L69.2389 13.9187C68.9204 13.6002 68.9204 13.0852 69.2389 12.7701L72.5053 9.50366L69.2389 6.23725C68.9204 5.91874 68.9204 5.4037 69.2389 5.08858L70.0013 4.31603C70.3198 3.99752 70.8348 3.99752 71.1499 4.31603L75.7582 8.92425C76.08 9.24275 76.08 9.75779 75.7615 10.0763Z" fill="#666666"/>
</svg>
