<svg width="10" height="10" viewBox="0 0 10 10" fill="none" xmlns="http://www.w3.org/2000/svg">
<path d="M5 0C7.7621 0 10 2.2379 10 5C10 7.7621 7.7621 10 5 10C2.2379 10 0 7.7621 0 5C0 2.2379 2.2379 0 5 0ZM7.29637 4.65726L4.56452 1.9254C4.375 1.73589 4.06855 1.73589 3.88105 1.9254L3.53831 2.26815C3.34879 2.45766 3.34879 2.76411 3.53831 2.95161L5.58669 5L3.53831 7.04839C3.34879 7.2379 3.34879 7.54435 3.53831 7.73185L3.88105 8.0746C4.07056 8.26411 4.37702 8.26411 4.56452 8.0746L7.29637 5.34274C7.48589 5.15323 7.48589 4.84677 7.29637 4.65726Z" fill="#6C6C6C"/>
</svg>
