<svg width="17" height="14" viewBox="0 0 17 14" fill="none" xmlns="http://www.w3.org/2000/svg">
<path d="M13.666 12.7196L10.4158 12.7107V9.91443C10.4158 9.65658 10.3133 9.40931 10.131 9.22699C9.94869 9.04467 9.70141 8.94224 9.44357 8.94224H7.55482C7.29698 8.94224 7.04971 9.04467 6.86739 9.22699C6.68506 9.40931 6.58264 9.65659 6.58264 9.91443V12.7112L3.33356 12.7197V8.14683L8.5004 3.89134L13.666 8.14366V12.7196ZM13.9021 4.44179V4.67762L14.0841 4.82762L16.4406 6.77009L15.874 7.45894L9.04401 1.83362L9.04403 1.8336L9.03992 1.83029C8.88708 1.70709 8.69669 1.63991 8.50038 1.63991C8.30407 1.63991 8.11367 1.70709 7.96083 1.83029L7.96081 1.83026L7.95673 1.83363L1.1273 7.45872L0.559394 6.76833L7.91651 0.709237C7.91655 0.709203 7.91659 0.709169 7.91663 0.709136C8.08067 0.574195 8.28649 0.500417 8.4989 0.500417C8.71137 0.500417 8.91724 0.574232 9.0813 0.709237L9.08133 0.709267L11.7235 2.88309L12.5412 3.55582V2.49698V0.5H13.9021V4.44179Z" stroke="#5D5D5D"/>
</svg>
