<svg width="14" height="14" viewBox="0 0 14 14" fill="none" xmlns="http://www.w3.org/2000/svg">
<path d="M10.768 2.77113L10.768 2.7711C10.1359 2.25524 9.70069 1.43439 9.58437 0.5H9.89968C10.0071 1.28134 10.3681 2.00573 10.9482 2.47896C11.5803 2.99482 12.0154 3.81564 12.1318 4.75H11.8162C11.709 3.96861 11.3477 3.24428 10.768 2.77113ZM9.89355 0.453233L9.89356 0.453286L9.89355 0.453233ZM7.81492 2.77113L7.81488 2.7711C7.18277 2.25524 6.74756 1.43439 6.63124 0.5H6.94655C7.05401 1.28134 7.41497 2.00573 7.99507 2.47896C8.62715 2.99482 9.06232 3.81564 9.17864 4.75H8.86311C8.75591 3.96861 8.39458 3.24428 7.81492 2.77113ZM6.94043 0.453232L6.94044 0.45328L6.94043 0.453232ZM6.69999 7.4L6.83333 7.5H7H13.125C13.332 7.5 13.5 7.66798 13.5 7.875V12.25C13.5 12.9405 12.9405 13.5 12.25 13.5H1.75C1.05954 13.5 0.5 12.9405 0.5 12.25V6.125C0.5 5.43454 1.05954 4.875 1.75 4.875H2.91676H2.91678C3.18723 4.87499 3.45039 4.9627 3.66674 5.12498L3.66675 5.125L6.69999 7.4ZM3.28125 12.75C3.67825 12.75 4 12.4283 4 12.0312V8.96875C4 8.57175 3.67825 8.25 3.28125 8.25H2.84375C2.44675 8.25 2.125 8.57175 2.125 8.96875V12.0312C2.125 12.4283 2.44675 12.75 2.84375 12.75H3.28125ZM5.90625 12.75C6.30325 12.75 6.625 12.4283 6.625 12.0312V8.96875C6.625 8.57175 6.30325 8.25 5.90625 8.25H5.46875C5.07175 8.25 4.75 8.57175 4.75 8.96875V12.0312C4.75 12.4283 5.07175 12.75 5.46875 12.75H5.90625ZM8.53125 12.75C8.92825 12.75 9.25 12.4283 9.25 12.0312V8.96875C9.25 8.57175 8.92825 8.25 8.53125 8.25H8.09375C7.69675 8.25 7.375 8.57175 7.375 8.96875V12.0312C7.375 12.4283 7.69675 12.75 8.09375 12.75H8.53125ZM11.1562 12.75C11.5533 12.75 11.875 12.4283 11.875 12.0312V8.96875C11.875 8.57175 11.5533 8.25 11.1562 8.25H10.7188C10.3217 8.25 10 8.57175 10 8.96875V12.0312C10 12.4283 10.3217 12.75 10.7188 12.75H11.1562ZM3 1.75C3 2.44046 2.44046 3 1.75 3C1.05954 3 0.5 2.44046 0.5 1.75C0.5 1.05954 1.05954 0.5 1.75 0.5C2.44046 0.5 3 1.05954 3 1.75Z" stroke="#5D5D5D"/>
</svg>
