<svg width="25" height="18" viewBox="0 0 25 18" fill="none" xmlns="http://www.w3.org/2000/svg">
<path d="M7.5 9C9.91797 9 11.875 6.98705 11.875 4.5C11.875 2.01295 9.91797 0 7.5 0C5.08203 0 3.125 2.01295 3.125 4.5C3.125 6.98705 5.08203 9 7.5 9ZM10.5 10.2857H10.1758C9.36328 10.6875 8.46094 10.9286 7.5 10.9286C6.53906 10.9286 5.64062 10.6875 4.82422 10.2857H4.5C2.01562 10.2857 0 12.3589 0 14.9143V16.0714C0 17.1362 0.839844 18 1.875 18H13.125C14.1602 18 15 17.1362 15 16.0714V14.9143C15 12.3589 12.9844 10.2857 10.5 10.2857ZM18.75 9C20.8203 9 22.5 7.27232 22.5 5.14286C22.5 3.01339 20.8203 1.28571 18.75 1.28571C16.6797 1.28571 15 3.01339 15 5.14286C15 7.27232 16.6797 9 18.75 9ZM20.625 10.2857H20.4766C19.9336 10.4786 19.3594 10.6071 18.75 10.6071C18.1406 10.6071 17.5664 10.4786 17.0234 10.2857H16.875C16.0781 10.2857 15.3438 10.5228 14.6992 10.9045C15.6523 11.9612 16.25 13.3634 16.25 14.9143V16.4571C16.25 16.5455 16.2305 16.6299 16.2266 16.7143H23.125C24.1602 16.7143 25 15.8504 25 14.7857C25 12.2987 23.043 10.2857 20.625 10.2857Z" fill="black"/>
</svg>
