<svg width="13" height="15" viewBox="0 0 13 15" fill="none" xmlns="http://www.w3.org/2000/svg">
<mask id="path-1-inside-1_161_643" fill="white">
<path d="M12.7765 10.0161L11.7958 9.45032L12.5502 9.24722C12.7881 9.18338 12.9303 8.93675 12.8664 8.69882L12.7504 8.26649C12.6865 8.02857 12.4399 7.88639 12.202 7.95023L10.1477 8.50152L8.29359 7.42795L10.1448 6.35728L12.1991 6.90857C12.437 6.97241 12.6836 6.83023 12.7475 6.5923L12.8635 6.15997C12.9274 5.92205 12.7852 5.67542 12.5473 5.61158L11.7928 5.40847L12.7736 4.84267C12.9883 4.71791 13.0608 4.44516 12.939 4.23045L12.4892 3.45284C12.3645 3.23812 12.0917 3.16558 11.877 3.28745L10.8963 3.85325L11.0994 3.09885C11.1632 2.86092 11.021 2.61429 10.7831 2.55046L10.3508 2.43439C10.1129 2.37056 9.86623 2.51274 9.80239 2.75066L9.2511 4.80495L7.42893 5.85531V3.60662L8.98706 2.04849C9.16695 1.86859 9.16695 1.57264 8.98706 1.39274L8.65918 1.06487C8.47929 0.88497 8.18333 0.88497 8.00344 1.06487L7.42893 1.63647V0.464247C7.42893 0.208911 7.22002 0 6.96468 0H6.03619C5.78085 0 5.57194 0.208911 5.57194 0.464247V1.63647L5.00034 1.06487C4.82044 0.88497 4.52449 0.88497 4.34459 1.06487L4.01382 1.39274C3.83102 1.57264 3.83102 1.86859 4.01382 2.04849L5.57194 3.60662V5.85531L3.74978 4.80495L3.19848 2.75066C3.13465 2.51274 2.88802 2.37056 2.65009 2.43439L2.21776 2.55046C1.97983 2.61429 1.83766 2.86092 1.90149 3.09885L2.1046 3.85325L1.12388 3.28745C0.909166 3.16268 0.636421 3.23812 0.511654 3.45284L0.0619154 4.22755C-0.0628509 4.44226 0.0125892 4.71501 0.227303 4.83977L1.20802 5.40557L0.453624 5.60868C0.212796 5.67252 0.07062 5.91915 0.134454 6.15997L0.250516 6.5923C0.31435 6.83023 0.560981 6.97241 0.798907 6.90857L2.8532 6.35728L4.70438 7.42795L2.8532 8.49862L0.798907 7.94732C0.560981 7.88349 0.31435 8.02567 0.250516 8.26359L0.134454 8.69592C0.07062 8.93385 0.212796 9.18048 0.450722 9.24431L1.20512 9.44742L0.224402 10.0161C0.00968764 10.1409 -0.0628509 10.4136 0.0590139 10.6283L0.508753 11.406C0.633519 11.6207 0.906264 11.6932 1.12098 11.5713L2.1017 11.0055L1.89859 11.76C1.83476 11.9979 1.97693 12.2445 2.21486 12.3083L2.64719 12.4244C2.88512 12.4882 3.13175 12.3461 3.19558 12.1081L3.74687 10.0538L5.56904 9.00349V11.2522L4.01091 12.8103C3.82812 12.9902 3.82812 13.2862 4.01091 13.4661L4.33879 13.7939C4.51868 13.9738 4.81464 13.9738 4.99454 13.7939L5.56614 13.2223V14.3916C5.56614 14.647 5.77505 14.8559 6.03039 14.8559H6.95888C7.21422 14.8559 7.42313 14.647 7.42313 14.3916V13.2194L7.99473 13.791C8.17463 13.9709 8.47058 13.9709 8.65048 13.791L8.97835 13.4632C9.15825 13.2833 9.15825 12.9873 8.97835 12.8074L7.42893 11.2493V9.00058L9.2511 10.0509L9.80239 12.1052C9.86623 12.3432 10.1129 12.4853 10.3508 12.4215L10.7831 12.3054C11.021 12.2416 11.1632 11.995 11.0994 11.757L10.8963 11.0026L11.877 11.5684C12.0917 11.6932 12.3645 11.6178 12.4892 11.4031L12.939 10.6254C13.0637 10.4136 12.9912 10.138 12.7765 10.0161Z"/>
</mask>
<path d="M12.7765 10.0161L11.7958 9.45032L12.5502 9.24722C12.7881 9.18338 12.9303 8.93675 12.8664 8.69882L12.7504 8.26649C12.6865 8.02857 12.4399 7.88639 12.202 7.95023L10.1477 8.50152L8.29359 7.42795L10.1448 6.35728L12.1991 6.90857C12.437 6.97241 12.6836 6.83023 12.7475 6.5923L12.8635 6.15997C12.9274 5.92205 12.7852 5.67542 12.5473 5.61158L11.7928 5.40847L12.7736 4.84267C12.9883 4.71791 13.0608 4.44516 12.939 4.23045L12.4892 3.45284C12.3645 3.23812 12.0917 3.16558 11.877 3.28745L10.8963 3.85325L11.0994 3.09885C11.1632 2.86092 11.021 2.61429 10.7831 2.55046L10.3508 2.43439C10.1129 2.37056 9.86623 2.51274 9.80239 2.75066L9.2511 4.80495L7.42893 5.85531V3.60662L8.98706 2.04849C9.16695 1.86859 9.16695 1.57264 8.98706 1.39274L8.65918 1.06487C8.47929 0.88497 8.18333 0.88497 8.00344 1.06487L7.42893 1.63647V0.464247C7.42893 0.208911 7.22002 0 6.96468 0H6.03619C5.78085 0 5.57194 0.208911 5.57194 0.464247V1.63647L5.00034 1.06487C4.82044 0.88497 4.52449 0.88497 4.34459 1.06487L4.01382 1.39274C3.83102 1.57264 3.83102 1.86859 4.01382 2.04849L5.57194 3.60662V5.85531L3.74978 4.80495L3.19848 2.75066C3.13465 2.51274 2.88802 2.37056 2.65009 2.43439L2.21776 2.55046C1.97983 2.61429 1.83766 2.86092 1.90149 3.09885L2.1046 3.85325L1.12388 3.28745C0.909166 3.16268 0.636421 3.23812 0.511654 3.45284L0.0619154 4.22755C-0.0628509 4.44226 0.0125892 4.71501 0.227303 4.83977L1.20802 5.40557L0.453624 5.60868C0.212796 5.67252 0.07062 5.91915 0.134454 6.15997L0.250516 6.5923C0.31435 6.83023 0.560981 6.97241 0.798907 6.90857L2.8532 6.35728L4.70438 7.42795L2.8532 8.49862L0.798907 7.94732C0.560981 7.88349 0.31435 8.02567 0.250516 8.26359L0.134454 8.69592C0.07062 8.93385 0.212796 9.18048 0.450722 9.24431L1.20512 9.44742L0.224402 10.0161C0.00968764 10.1409 -0.0628509 10.4136 0.0590139 10.6283L0.508753 11.406C0.633519 11.6207 0.906264 11.6932 1.12098 11.5713L2.1017 11.0055L1.89859 11.76C1.83476 11.9979 1.97693 12.2445 2.21486 12.3083L2.64719 12.4244C2.88512 12.4882 3.13175 12.3461 3.19558 12.1081L3.74687 10.0538L5.56904 9.00349V11.2522L4.01091 12.8103C3.82812 12.9902 3.82812 13.2862 4.01091 13.4661L4.33879 13.7939C4.51868 13.9738 4.81464 13.9738 4.99454 13.7939L5.56614 13.2223V14.3916C5.56614 14.647 5.77505 14.8559 6.03039 14.8559H6.95888C7.21422 14.8559 7.42313 14.647 7.42313 14.3916V13.2194L7.99473 13.791C8.17463 13.9709 8.47058 13.9709 8.65048 13.791L8.97835 13.4632C9.15825 13.2833 9.15825 12.9873 8.97835 12.8074L7.42893 11.2493V9.00058L9.2511 10.0509L9.80239 12.1052C9.86623 12.3432 10.1129 12.4853 10.3508 12.4215L10.7831 12.3054C11.021 12.2416 11.1632 11.995 11.0994 11.757L10.8963 11.0026L11.877 11.5684C12.0917 11.6932 12.3645 11.6178 12.4892 11.4031L12.939 10.6254C13.0637 10.4136 12.9912 10.138 12.7765 10.0161Z" stroke="#5D5D5D" stroke-width="2" mask="url(#path-1-inside-1_161_643)"/>
</svg>
