<svg width="14" height="10" viewBox="0 0 14 10" fill="none" xmlns="http://www.w3.org/2000/svg">
<path d="M10.5003 5.09951H10.0003V5.59951C10.0003 6.48264 9.28362 7.19933 8.40049 7.19933H4.20086C3.31772 7.19933 2.60104 6.48264 2.60104 5.59951V0.524954C2.60104 0.519824 2.60197 0.516605 2.60291 0.514376C2.60398 0.511827 2.60566 0.509254 2.60798 0.506938C2.61029 0.504623 2.61287 0.502945 2.61542 0.501871C2.61764 0.500931 2.62086 0.5 2.62599 0.5H11.2002C12.4683 0.5 13.5 1.53166 13.5 2.79976C13.5 4.06785 12.4683 5.09951 11.2002 5.09951H10.5003ZM10.0003 4.19963V4.69963H10.5003H11.2002C12.2485 4.69963 13.1001 3.84802 13.1001 2.79976C13.1001 1.75149 12.2485 0.899878 11.2002 0.899878H10.5003H10.0003V1.39988V4.19963ZM12.2436 9.29914H1.05769C0.797203 9.29914 0.616891 9.1315 0.534949 8.91918C0.53235 8.91245 0.529917 8.9058 0.527645 8.89927H12.7733C12.7709 8.90611 12.7684 8.91307 12.7657 8.92013C12.6846 9.13143 12.5053 9.29914 12.2436 9.29914Z" stroke="#5D5D5D"/>
</svg>
