<svg width="14" height="10" viewBox="0 0 14 10" fill="none" xmlns="http://www.w3.org/2000/svg">
<path d="M13.8886 2.688C10.013 -0.896657 3.98539 -0.895344 0.111325 2.688C-0.0343624 2.82275 -0.0372061 3.05091 0.103669 3.19069L0.852669 3.93378C0.986982 4.06722 1.20311 4.07006 1.34267 3.9421C4.53467 1.01784 9.46486 1.01719 12.6575 3.9421C12.7971 4.07006 13.0132 4.067 13.1475 3.93378L13.8965 3.19069C14.0372 3.05091 14.0343 2.82275 13.8886 2.688ZM6.99999 7C6.2267 7 5.59998 7.62672 5.59998 8.4C5.59998 9.17329 6.2267 9.8 6.99999 9.8C7.77327 9.8 8.39999 9.17329 8.39999 8.4C8.39999 7.62672 7.77327 7 6.99999 7ZM11.4334 5.17147C8.91208 2.94175 5.08505 2.94416 2.56658 5.17147C2.41564 5.30491 2.41083 5.53657 2.55411 5.67788L3.30748 6.42141C3.43873 6.55091 3.65005 6.55966 3.78983 6.43891C5.62623 4.85144 8.37789 4.85494 10.2099 6.43891C10.3497 6.55966 10.561 6.55113 10.6923 6.42141L11.4456 5.67788C11.5891 5.53657 11.5841 5.30469 11.4334 5.17147Z" fill="#5D5D5D"/>
</svg>
