<svg width="14" height="16" viewBox="0 0 14 16" fill="none" xmlns="http://www.w3.org/2000/svg">
<path d="M12.5 15V15.5H8.5V15V12.375C8.5 11.8918 8.10824 11.5 7.625 11.5H6.375C5.89176 11.5 5.5 11.8918 5.5 12.375V15V15.5H1.5V15V0.75C1.5 0.611924 1.61192 0.5 1.75 0.5H12.25C12.3881 0.5 12.5 0.611924 12.5 0.75V15ZM4.375 1.5C3.89176 1.5 3.5 1.89176 3.5 2.375V3.625C3.5 4.10824 3.89176 4.5 4.375 4.5C3.89176 4.5 3.5 4.89176 3.5 5.375V6.625C3.5 7.10824 3.89176 7.5 4.375 7.5C3.89176 7.5 3.5 7.89176 3.5 8.375V9.625C3.5 10.1082 3.89176 10.5 4.375 10.5H5.625C6.10824 10.5 6.5 10.1082 6.5 9.625V8.375C6.5 7.89176 6.10824 7.5 5.625 7.5C6.10824 7.5 6.5 7.10824 6.5 6.625V5.375C6.5 4.89176 6.10824 4.5 5.625 4.5C6.10824 4.5 6.5 4.10824 6.5 3.625V2.375C6.5 1.89176 6.10824 1.5 5.625 1.5H4.375ZM9.625 10.5C10.1082 10.5 10.5 10.1082 10.5 9.625V8.375C10.5 7.89176 10.1082 7.5 9.625 7.5C10.1082 7.5 10.5 7.10824 10.5 6.625V5.375C10.5 4.89176 10.1082 4.5 9.625 4.5C10.1082 4.5 10.5 4.10824 10.5 3.625V2.375C10.5 1.89176 10.1082 1.5 9.625 1.5H8.375C7.89176 1.5 7.5 1.89176 7.5 2.375V3.625C7.5 4.10824 7.89176 4.5 8.375 4.5C7.89176 4.5 7.5 4.89176 7.5 5.375V6.625C7.5 7.10824 7.89176 7.5 8.375 7.5C7.89176 7.5 7.5 7.89176 7.5 8.375V9.625C7.5 10.1082 7.89176 10.5 8.375 10.5H9.625Z" stroke="#5D5D5D"/>
</svg>
