<svg width="15" height="14" viewBox="0 0 15 14" fill="none" xmlns="http://www.w3.org/2000/svg">
<path d="M5.81596 6.69017L6.1413 6.36483L5.84407 6.01362C4.9998 5.01603 4.97145 3.55656 5.75989 2.52814L6.09325 2.09332L5.62983 1.80102C5.20163 1.53094 4.6944 1.375 4.15312 1.375C2.62073 1.375 1.375 2.62073 1.375 4.15312V12.625H0.5V4.15312C0.5 2.13913 2.13913 0.5 4.15312 0.5C5.10442 0.5 5.97166 0.865284 6.62307 1.46433L6.83718 1.66122L7.11418 1.57242C8.00746 1.28602 9.01595 1.46138 9.76364 2.09409L10.1149 2.3913L10.4402 2.06593L10.4434 2.06273C10.4434 2.06272 10.4434 2.06272 10.4434 2.06271C10.5227 1.98348 10.6514 1.98349 10.7306 2.06273L11.0623 2.39437C11.1415 2.47362 11.1415 2.60235 11.0623 2.6816L6.4316 7.31227C6.35235 7.39152 6.22362 7.39152 6.14437 7.31227L5.81273 6.98063C5.73348 6.90138 5.73348 6.77265 5.81273 6.6934L5.81596 6.69017ZM9.36539 6.93635C9.37169 6.967 9.375 6.99874 9.375 7.03125C9.375 7.06376 9.37169 7.0955 9.36539 7.12615C9.21363 7.21248 9.08748 7.33863 9.00115 7.49039L9.36539 6.93635ZM13.1346 6.18865C13.1283 6.158 13.125 6.12626 13.125 6.09375C13.125 6.06124 13.1283 6.0295 13.1346 5.99885C13.2864 5.91252 13.4125 5.78637 13.4989 5.63461C13.5295 5.62831 13.5612 5.625 13.5938 5.625C13.6263 5.625 13.658 5.62831 13.6886 5.63461C13.775 5.78637 13.9011 5.91252 14.0529 5.99885L13.1346 6.18865ZM11.8136 5.63461C11.9 5.78637 12.0261 5.91252 12.1779 5.99885C12.1842 6.0295 12.1875 6.06124 12.1875 6.09375C12.1875 6.12626 12.1842 6.158 12.1779 6.18865C12.0261 6.27498 11.9 6.40113 11.8136 6.55289V5.63461ZM10.3029 5.99885C10.3092 6.0295 10.3125 6.06124 10.3125 6.09375C10.3125 6.12626 10.3092 6.158 10.3029 6.18865C10.1511 6.27498 10.025 6.40113 9.93865 6.55289L10.3029 5.99885ZM10.3029 7.87385C10.3092 7.9045 10.3125 7.93624 10.3125 7.96875C10.3125 8.00126 10.3092 8.033 10.3029 8.06365C10.1511 8.14998 10.025 8.27613 9.93865 8.42789L10.3029 7.87385ZM10.75 5.15625C10.75 5.139 10.764 5.125 10.7812 5.125C10.7985 5.125 10.8125 5.139 10.8125 5.15625C10.8125 5.1735 10.7985 5.1875 10.7812 5.1875C10.764 5.1875 10.75 5.1735 10.75 5.15625ZM12.6875 5.15625C12.6875 5.1735 12.6735 5.1875 12.6562 5.1875C12.639 5.1875 12.625 5.1735 12.625 5.15625C12.625 5.139 12.639 5.125 12.6562 5.125C12.6735 5.125 12.6875 5.139 12.6875 5.15625ZM14.5 5.15625C14.5 5.139 14.514 5.125 14.5312 5.125C14.5485 5.125 14.5625 5.139 14.5625 5.15625C14.5625 5.1735 14.5485 5.1875 14.5312 5.1875C14.514 5.1875 14.5 5.1735 14.5 5.15625ZM9.8125 6.09375C9.8125 6.0765 9.8265 6.0625 9.84375 6.0625C9.861 6.0625 9.875 6.0765 9.875 6.09375C9.875 6.111 9.861 6.125 9.84375 6.125C9.8265 6.125 9.8125 6.111 9.8125 6.09375ZM11.7188 6.125C11.7015 6.125 11.6875 6.111 11.6875 6.09375C11.6875 6.0765 11.7015 6.0625 11.7188 6.0625C11.736 6.0625 11.75 6.0765 11.75 6.09375C11.75 6.111 11.736 6.125 11.7188 6.125ZM13.5625 6.09375C13.5625 6.0765 13.5765 6.0625 13.5938 6.0625C13.611 6.0625 13.625 6.0765 13.625 6.09375C13.625 6.111 13.611 6.125 13.5938 6.125C13.5765 6.125 13.5625 6.111 13.5625 6.09375ZM8.875 7.03125C8.875 7.014 8.889 7 8.90625 7C8.9235 7 8.9375 7.014 8.9375 7.03125C8.9375 7.0485 8.9235 7.0625 8.90625 7.0625C8.889 7.0625 8.875 7.0485 8.875 7.03125ZM10.8125 7.03125C10.8125 7.0485 10.7985 7.0625 10.7812 7.0625C10.764 7.0625 10.75 7.0485 10.75 7.03125C10.75 7.014 10.764 7 10.7812 7C10.7985 7 10.8125 7.014 10.8125 7.03125ZM12.625 7.03125C12.625 7.014 12.639 7 12.6562 7C12.6735 7 12.6875 7.014 12.6875 7.03125C12.6875 7.0485 12.6735 7.0625 12.6562 7.0625C12.639 7.0625 12.625 7.0485 12.625 7.03125ZM9.875 7.96875C9.875 7.986 9.861 8 9.84375 8C9.8265 8 9.8125 7.986 9.8125 7.96875C9.8125 7.9515 9.8265 7.9375 9.84375 7.9375C9.861 7.9375 9.875 7.9515 9.875 7.96875ZM11.6875 7.96875C11.6875 7.9515 11.7015 7.9375 11.7188 7.9375C11.736 7.9375 11.75 7.9515 11.75 7.96875C11.75 7.986 11.736 8 11.7188 8C11.7015 8 11.6875 7.986 11.6875 7.96875ZM8.875 8.90625C8.875 8.889 8.889 8.875 8.90625 8.875C8.9235 8.875 8.9375 8.889 8.9375 8.90625C8.9375 8.9235 8.9235 8.9375 8.90625 8.9375C8.889 8.9375 8.875 8.9235 8.875 8.90625ZM10.75 8.90625C10.75 8.889 10.764 8.875 10.7812 8.875C10.7985 8.875 10.8125 8.889 10.8125 8.90625C10.8125 8.9235 10.7985 8.9375 10.7812 8.9375C10.764 8.9375 10.75 8.9235 10.75 8.90625ZM9.8125 9.84375C9.8125 9.8265 9.8265 9.8125 9.84375 9.8125C9.861 9.8125 9.875 9.8265 9.875 9.84375C9.875 9.861 9.861 9.875 9.84375 9.875C9.8265 9.875 9.8125 9.861 9.8125 9.84375ZM8.875 10.7812C8.875 10.764 8.889 10.75 8.90625 10.75C8.9235 10.75 8.9375 10.764 8.9375 10.7812C8.9375 10.7985 8.9235 10.8125 8.90625 10.8125C8.889 10.8125 8.875 10.7985 8.875 10.7812Z" stroke="#5D5D5D"/>
</svg>
