<svg width="23" height="22" viewBox="0 0 23 22" fill="none" xmlns="http://www.w3.org/2000/svg">
<path d="M11.6961 5.33081C8.59061 5.33081 6.08572 7.83569 6.08572 10.9412C6.08572 14.0466 8.59061 16.5515 11.6961 16.5515C14.8015 16.5515 17.3064 14.0466 17.3064 10.9412C17.3064 7.83569 14.8015 5.33081 11.6961 5.33081ZM11.6961 14.5886C9.68924 14.5886 8.04861 12.9529 8.04861 10.9412C8.04861 8.92944 9.68436 7.2937 11.6961 7.2937C13.7078 7.2937 15.3435 8.92944 15.3435 10.9412C15.3435 12.9529 13.7029 14.5886 11.6961 14.5886ZM18.8445 5.10132C18.8445 5.82886 18.2586 6.40991 17.5359 6.40991C16.8084 6.40991 16.2273 5.82397 16.2273 5.10132C16.2273 4.37866 16.8133 3.79272 17.5359 3.79272C18.2586 3.79272 18.8445 4.37866 18.8445 5.10132ZM22.5603 6.42944C22.4773 4.67651 22.0769 3.12378 20.7928 1.84448C19.5135 0.565185 17.9607 0.164795 16.2078 0.0769043C14.4012 -0.0256348 8.98611 -0.0256348 7.17947 0.0769043C5.43143 0.159912 3.87869 0.560303 2.59451 1.8396C1.31033 3.1189 0.914825 4.67163 0.826935 6.42456C0.724396 8.2312 0.724396 13.6462 0.826935 15.4529C0.909943 17.2058 1.31033 18.7585 2.59451 20.0378C3.87869 21.3171 5.42654 21.7175 7.17947 21.8054C8.98611 21.908 14.4012 21.908 16.2078 21.8054C17.9607 21.7224 19.5135 21.322 20.7928 20.0378C22.0721 18.7585 22.4724 17.2058 22.5603 15.4529C22.6629 13.6462 22.6629 8.23608 22.5603 6.42944ZM20.2263 17.3914C19.8455 18.3484 19.1082 19.0857 18.1463 19.4714C16.7058 20.0427 13.2879 19.9109 11.6961 19.9109C10.1043 19.9109 6.68143 20.0378 5.24588 19.4714C4.28885 19.0906 3.55154 18.3533 3.1658 17.3914C2.59451 15.9509 2.72635 12.533 2.72635 10.9412C2.72635 9.34937 2.5994 5.92651 3.1658 4.49097C3.54666 3.53394 4.28397 2.79663 5.24588 2.41089C6.68631 1.8396 10.1043 1.97144 11.6961 1.97144C13.2879 1.97144 16.7107 1.84448 18.1463 2.41089C19.1033 2.79175 19.8406 3.52905 20.2263 4.49097C20.7976 5.9314 20.6658 9.34937 20.6658 10.9412C20.6658 12.533 20.7976 15.9558 20.2263 17.3914Z" fill="#E4E4E4"/>
</svg>
