<svg width="23" height="22" viewBox="0 0 23 22" fill="none" xmlns="http://www.w3.org/2000/svg">
<path d="M14.1611 8.40821V11.8799C14.1611 11.9678 14.0928 12.0361 14.0049 12.0361H13.4483C13.3945 12.0361 13.3457 12.0068 13.3213 11.9727L11.7295 9.82423V11.8848C11.7295 11.9727 11.6611 12.041 11.5733 12.041H11.0166C10.9287 12.041 10.8604 11.9727 10.8604 11.8848V8.4131C10.8604 8.32521 10.9287 8.25685 11.0166 8.25685H11.5684C11.6172 8.25685 11.6709 8.28126 11.6953 8.32521L13.2871 10.4736V8.4131C13.2871 8.32521 13.3555 8.25685 13.4434 8.25685H14C14.0879 8.25196 14.1611 8.32521 14.1611 8.40821ZM10.1572 8.25196H9.6006C9.51271 8.25196 9.44435 8.32032 9.44435 8.40821V11.8799C9.44435 11.9678 9.51271 12.0361 9.6006 12.0361H10.1572C10.2451 12.0361 10.3135 11.9678 10.3135 11.8799V8.40821C10.3135 8.32521 10.2451 8.25196 10.1572 8.25196ZM8.81446 11.1621H7.29591V8.40821C7.29591 8.32032 7.22755 8.25196 7.13966 8.25196H6.58302C6.49513 8.25196 6.42677 8.32032 6.42677 8.40821V11.8799C6.42677 11.9238 6.44142 11.958 6.47071 11.9873C6.50001 12.0117 6.53419 12.0313 6.57814 12.0313H8.80958C8.89747 12.0313 8.96583 11.9629 8.96583 11.875V11.3184C8.96583 11.2354 8.89747 11.1621 8.81446 11.1621ZM17.0908 8.25196H14.8594C14.7764 8.25196 14.7031 8.32032 14.7031 8.40821V11.8799C14.7031 11.9629 14.7715 12.0361 14.8594 12.0361H17.0908C17.1787 12.0361 17.2471 11.9678 17.2471 11.8799V11.3233C17.2471 11.2354 17.1787 11.167 17.0908 11.167H15.5723V10.5811H17.0908C17.1787 10.5811 17.2471 10.5127 17.2471 10.4248V9.86329C17.2471 9.7754 17.1787 9.70704 17.0908 9.70704H15.5723V9.1211H17.0908C17.1787 9.1211 17.2471 9.05275 17.2471 8.96485V8.40821C17.2422 8.32521 17.1738 8.25196 17.0908 8.25196ZM22.75 3.98927V17.9199C22.7451 20.1074 20.9531 21.8799 18.7608 21.875H4.83009C2.64259 21.8701 0.870127 20.0733 0.87501 17.8858V3.95509C0.879893 1.76759 2.67677 -0.00487275 4.86427 1.00643e-05H18.7949C20.9824 0.00489288 22.7549 1.79688 22.75 3.98927ZM19.7422 9.9756C19.7422 6.41114 16.168 3.51075 11.7783 3.51075C7.38868 3.51075 3.81446 6.41114 3.81446 9.9756C3.81446 13.169 6.6465 15.8447 10.4746 16.3525C11.4072 16.5527 11.2998 16.8945 11.0899 18.1494C11.0557 18.3496 10.9287 18.9356 11.7783 18.5791C12.6279 18.2227 16.3633 15.8789 18.0381 13.9551C19.1904 12.6856 19.7422 11.4014 19.7422 9.9756Z" fill="#E4E4E4"/>
</svg>
