<svg width="19" height="19" viewBox="0 0 19 19" fill="none" xmlns="http://www.w3.org/2000/svg">
<path d="M19 9.5C19 14.7479 14.7463 19 9.5 19C4.25366 19 0 14.7479 0 9.5C0 4.2552 4.25366 0 9.5 0C14.7463 0 19 4.2552 19 9.5ZM9.5 11.4153C8.52682 11.4153 7.7379 12.2042 7.7379 13.1774C7.7379 14.1506 8.52682 14.9395 9.5 14.9395C10.4732 14.9395 11.2621 14.1506 11.2621 13.1774C11.2621 12.2042 10.4732 11.4153 9.5 11.4153ZM7.82704 5.0815L8.1112 10.2912C8.12449 10.535 8.32606 10.7258 8.57019 10.7258H10.4298C10.6739 10.7258 10.8755 10.535 10.8888 10.2912L11.173 5.0815C11.1873 4.81819 10.9777 4.59677 10.714 4.59677H8.28599C8.02229 4.59677 7.81268 4.81819 7.82704 5.0815Z" fill="#D4BD9C"/>
</svg>
