<svg width="30" height="27" viewBox="0 0 30 27" fill="none" xmlns="http://www.w3.org/2000/svg">
<path d="M27.0187 15.5829L27.0187 15.5829C26.9411 15.9244 26.6376 16.1667 26.2873 16.1667H11.0194H10.4068L10.5295 16.7669L10.8704 18.4335L10.9522 18.8333H11.3603H25.3404C25.8216 18.8333 26.1784 19.2802 26.0717 19.7496L25.7844 21.0139L25.6964 21.4011L26.0536 21.5746C26.8614 21.9667 27.4167 22.794 27.4167 23.75C27.4167 25.0847 26.3347 26.1667 25 26.1667C23.6653 26.1667 22.5833 25.0847 22.5833 23.75C22.5833 23.0737 22.8609 22.4633 23.3094 22.0238L24.1844 21.1667H22.9595H12.0404H10.8155L11.6905 22.0239C12.1391 22.4633 12.4167 23.0737 12.4167 23.75C12.4167 25.0847 11.3347 26.1667 10 26.1667C8.66531 26.1667 7.58333 25.0847 7.58333 23.75C7.58333 22.8543 8.07095 22.072 8.79776 21.654L9.11069 21.4741L9.03835 21.1204L5.3796 3.23314L5.29782 2.83333H4.88974H1.25C0.835778 2.83333 0.5 2.49756 0.5 2.08333V1.25C0.5 0.835778 0.835778 0.5 1.25 0.5H6.59005C6.94636 0.5 7.25346 0.750678 7.32483 1.09965L7.32483 1.09968L7.80223 3.43354L7.88401 3.83333H8.29208H28.7495C29.2307 3.83333 29.5875 4.28024 29.4808 4.74955L27.0187 15.5829Z" fill="white" stroke="black"/>
</svg>
