<svg width="22" height="25" viewBox="0 0 22 25" fill="none" xmlns="http://www.w3.org/2000/svg">
<path d="M13.7256 8.5609e-06H8.14453C7.92694 -0.000827891 7.71352 0.0596463 7.52871 0.174503C7.34391 0.289359 7.19519 0.453951 7.09961 0.649423L13.7256 8.5609e-06ZM13.7256 8.5609e-06C13.9437 -0.00014785 14.1575 0.0605526 14.3429 0.175281C14.5284 0.29001 14.6782 0.454215 14.7754 0.649423M13.7256 8.5609e-06L14.7754 0.649423M14.7754 0.649423L15.2344 1.56251L14.7754 0.649423ZM14.7876 1.78707L14.9261 2.06251H15.2344H21.0938C21.1683 2.06251 21.2399 2.09214 21.2926 2.14489C21.3454 2.19763 21.375 2.26917 21.375 2.34376V3.90626C21.375 3.98085 21.3454 4.05239 21.2926 4.10513C21.2399 4.15788 21.1683 4.18751 21.0938 4.18751H0.78125C0.706658 4.18751 0.635121 4.15788 0.582376 4.10513C0.529632 4.05239 0.5 3.98085 0.5 3.90626V2.34376C0.5 2.26917 0.529632 2.19763 0.582376 2.14488C0.635121 2.09214 0.706658 2.06251 0.78125 2.06251H6.64062H6.9489L7.08736 1.78707L7.54634 0.873984L7.54637 0.873998L7.54878 0.869065C7.6031 0.757979 7.68762 0.664442 7.79264 0.599169C7.89767 0.533897 8.01895 0.49953 8.14261 0.500009H8.14453L13.7256 0.500009L13.7259 0.500008C13.851 0.499919 13.9736 0.53472 14.0799 0.600498C14.1862 0.666276 14.2721 0.76042 14.3278 0.872339L14.3287 0.873985L14.7876 1.78707ZM2.60252 23.96C2.25675 23.6142 2.0625 23.1453 2.0625 22.6563V6.75001H19.8125V22.6563C19.8125 23.1453 19.6182 23.6142 19.2725 23.96C18.9267 24.3058 18.4577 24.5 17.9688 24.5H3.90625C3.41726 24.5 2.94829 24.3058 2.60252 23.96ZM14.719 9.25028C14.4787 9.49056 14.3438 9.81645 14.3438 10.1563V21.0938C14.3438 21.4336 14.4787 21.7595 14.719 21.9997C14.9593 22.24 15.2852 22.375 15.625 22.375C15.9648 22.375 16.2907 22.24 16.531 21.9997C16.7713 21.7595 16.9062 21.4336 16.9062 21.0938V10.1563C16.9062 9.81645 16.7713 9.49056 16.531 9.25028C16.2907 9.01 15.9648 8.87501 15.625 8.87501C15.2852 8.87501 14.9593 9.01 14.719 9.25028ZM10.0315 9.25028C9.79124 9.49056 9.65625 9.81645 9.65625 10.1563V21.0938C9.65625 21.4336 9.79124 21.7595 10.0315 21.9997C10.2718 22.24 10.5977 22.375 10.9375 22.375C11.2773 22.375 11.6032 22.24 11.8435 21.9997C12.0838 21.7595 12.2188 21.4336 12.2188 21.0938V10.1563C12.2188 9.81645 12.0838 9.49056 11.8435 9.25028C11.6032 9.01 11.2773 8.87501 10.9375 8.87501C10.5977 8.87501 10.2718 9.01 10.0315 9.25028ZM5.34402 9.25028C5.10374 9.49056 4.96875 9.81645 4.96875 10.1563V21.0938C4.96875 21.4336 5.10374 21.7595 5.34402 21.9997C5.5843 22.24 5.91019 22.375 6.25 22.375C6.58981 22.375 6.9157 22.24 7.15598 21.9997C7.39626 21.7595 7.53125 21.4336 7.53125 21.0938V10.1563C7.53125 9.81645 7.39626 9.49056 7.15598 9.25028C6.9157 9.01 6.58981 8.87501 6.25 8.87501C5.91019 8.87501 5.5843 9.01 5.34402 9.25028Z" stroke="#FF0000"/>
</svg>
