<svg width="25" height="17" viewBox="0 0 25 17" fill="none" xmlns="http://www.w3.org/2000/svg">
<path d="M10.875 4.24984C10.875 5.9882 9.40234 7.45952 7.5 7.45952C5.59766 7.45952 4.125 5.9882 4.125 4.24984C4.125 2.51148 5.59766 1.04016 7.5 1.04016C9.40234 1.04016 10.875 2.51148 10.875 4.24984ZM7.5 11.2637C8.53738 11.2637 9.51044 11.0378 10.3881 10.6623H10.5C12.4687 10.6623 14 12.19 14 13.9922V15.0747C14 15.4825 13.6445 15.8789 13.125 15.8789H1.875C1.35547 15.8789 1 15.4825 1 15.0747V13.9922C1 12.19 2.53125 10.6623 4.5 10.6623H4.61268C5.49161 11.0373 6.46132 11.2637 7.5 11.2637ZM21.5 4.85122C21.5 6.25506 20.3047 7.45952 18.75 7.45952C17.1953 7.45952 16 6.25506 16 4.85122C16 3.44738 17.1953 2.24293 18.75 2.24293C20.3047 2.24293 21.5 3.44738 21.5 4.85122ZM18.75 10.963C19.4293 10.963 20.0585 10.8401 20.6329 10.6623C22.5314 10.6664 24 12.136 24 13.872C24 14.2798 23.6445 14.6761 23.125 14.6761H17.25V13.9922C17.25 12.7866 16.9041 11.6681 16.3188 10.7098C16.4977 10.6791 16.6806 10.6627 16.8671 10.6623C17.4415 10.8401 18.0707 10.963 18.75 10.963Z" fill="#F8F8F8" stroke="black" stroke-width="2"/>
</svg>
