<svg width="25" height="20" viewBox="0 0 25 20" fill="none" xmlns="http://www.w3.org/2000/svg">
<path d="M23.8457 3.12932C23.573 1.89755 22.7698 0.927448 21.75 0.598229C19.9015 0 12.4891 0 12.4891 0C12.4891 0 5.07678 0 3.22821 0.598229C2.20837 0.9275 1.40516 1.89755 1.13255 3.12932C0.637238 5.36198 0.637238 10.0202 0.637238 10.0202C0.637238 10.0202 0.637238 14.6784 1.13255 16.9111C1.40516 18.1429 2.20837 19.0726 3.22821 19.4018C5.07678 20 12.4891 20 12.4891 20C12.4891 20 19.9014 20 21.75 19.4018C22.7698 19.0726 23.573 18.1429 23.8457 16.9111C24.341 14.6784 24.341 10.0202 24.341 10.0202C24.341 10.0202 24.341 5.36198 23.8457 3.12932ZM10.0648 14.2495V5.79089L16.2601 10.0203L10.0648 14.2495Z" fill="#E4E4E4"/>
</svg>
